<?xml version="1.0" encoding="UTF-8"?>
<svg id="Layer_2" data-name="Layer 2" xmlns="http://www.w3.org/2000/svg" viewBox="0 0 507.51 417.97">
  <defs>
    <style>
      .cls-1 {
        fill: #115440;
      }

      .cls-1, .cls-2 {
        stroke-width: 0px;
      }

      .cls-2 {
        fill: #b2cbaa;
      }
    </style>
  </defs>
  <g>
    <path class="cls-2" d="M391.84,414.47c-4.71,0-9.62-.47-14.6-1.39-19.31-3.57-32.8-13.05-37.23-16.17-7.08-4.97-17.69-13.63-28.08-26.6-4.61-5.76-8.74-12.06-10.58-14.94-3.54-.2-11.58-.85-21.05-2.92-8.27-1.8-15.91-4.54-18.9-5.67-3.35,1.29-12.65,4.7-23.43,7.1-11.89,2.66-21.72,3.42-25.31,3.62-1.88,1.92-6.3,6.25-12.35,11.19-12.46,10.16-25.44,18-43.41,26.22-22.03,10.08-48.07,16.69-49.17,16.97l-3.32.84-5.89-21.34,3.47-.88c.16-.04,16.64-4.24,29.96-9.29,9.66-3.67,20.38-8.07,33.28-15.34,5.82-3.28,11.16-6.92,15.09-9.78-6.61-1.01-16.11-2.87-25.35-6.17-21.09-7.52-37.71-18.55-50.81-33.74-15.8-18.31-29.19-45.25-39.8-80.06-8.06-26.44-17.11-45.88-31.23-67.11-10.88-16.37-22.21-27.28-22.33-27.39l-4.19-4.01,5.5-1.84c1.14-.38,28.25-9.35,56.91-10.86,5.85-.3,11.64-.57,18.04-.57,17.19,0,32.63,2.1,48.6,6.6,18.53,5.22,35.08,15.2,42.44,20.04.71-2.23,1.67-5.2,2.87-8.71,1.59-4.65,6.05-16.81,8.51-23.25l.16-.43c4.12-10.75,9.24-24.12,11.84-33.61,3.75-13.66,5.16-25.88,6.37-38.24,1.81-18.31,1.48-35.57,1.48-35.74l-.11-5.55,5.06,2.28c.11.05,2.92,1.33,13.39,7.02,8.71,4.74,28.23,18.3,37.77,26.79l2.84,2.52c15.34,13.61,28.59,25.36,47.39,53.35,15.01,22.35,21.83,41.34,24.65,50.05,8.21-5.42,17.44-9.97,27.48-13.56,22.44-8.03,46.84-11.61,79.13-11.61,1.03,0,2.08,0,3.13.01,22.2.15,44.79,4.35,45.74,4.53l5.39,1.01-3.18,4.46s-1.96,2.75-3.85,5.48l-1.13,1.63c-6.32,9.13-11.77,17.01-21.03,39.08-8.28,19.75-13.18,33.75-16.92,48.31-3.81,14.81-8.02,30.01-13.01,40.87-3.15,6.85-12.72,27.7-29.69,44.66-15.04,15.02-31.26,25.39-52.61,33.62-13.29,5.12-25.28,7.37-32.23,8.32,1.49,1.95,3.19,4.12,4.64,5.78,3.3,3.8,7.73,8,14.76,14.4,6.24,5.69,21.44,13.18,30.86,16.09,3.82,1.18,8.13,1.78,12.8,1.78,4.22,0,8-.49,10.47-.85,5.22-.77,13.24-3.56,13.32-3.59l3.45-1.2,6.41,21.29-3.29,1.04c-1.08.34-10.58,3.33-14.08,3.9-3.69.72-8.73,1.53-15.06,1.53Z"/>
    <path class="cls-1" d="M212.86,10.95s2.68,1.21,13.16,6.91c8.61,4.69,27.76,18.01,37.11,26.33,16.28,14.49,29.94,25.86,49.65,55.21,18.85,28.07,24.7,51.19,25.66,53.65,1.51-.99,12-9.18,30.55-15.81,22.94-8.21,47.04-11.4,77.95-11.4,1.03,0,2.06,0,3.11.01,22.14.15,45.12,4.47,45.12,4.47,0,0-1.98,2.77-3.88,5.53-6.97,10.11-12.57,17.65-22.5,41.34-8.88,21.17-13.53,34.97-17.08,48.8-3.42,13.28-7.7,29.18-12.8,40.28-4.61,10.04-13.68,28.36-28.98,43.64-15.3,15.29-31.26,25.07-51.4,32.83-20.14,7.76-37.43,8.76-37.43,8.76,0,0,4.93,6.84,8.46,10.9,3.52,4.06,8.23,8.48,15.05,14.69,6.81,6.21,22.68,13.91,32.19,16.85,4.74,1.46,9.53,1.93,13.84,1.93s8.17-.47,10.98-.89c5.62-.83,13.96-3.74,13.96-3.74l4.36,14.48s-10.35,3.27-13.64,3.79c-3.92.76-8.67,1.48-14.45,1.48-4.11,0-8.74-.36-13.96-1.33-16.79-3.1-28.89-10.69-35.85-15.59-6.87-4.83-17.21-13.25-27.36-25.92-6.03-7.52-11.32-16.16-11.32-16.16,0,0-9.97-.24-22.29-2.92-10.25-2.23-19.65-6.01-19.65-6.01,0,0-11.05,4.52-24.18,7.44-14.56,3.25-26.11,3.61-26.11,3.61,0,0-5.09,5.45-13.01,11.91-12.86,10.49-25.95,18.11-42.66,25.75-21.99,10.06-48.57,16.76-48.57,16.76l-4.03-14.6s16.67-4.23,30.35-9.42c11.2-4.25,21.48-8.64,33.75-15.56,12.27-6.92,22.3-15.26,22.3-15.26,0,0-17.12-1.33-33.1-7.03-15.96-5.69-33.98-14.93-49.34-32.73-19.97-23.14-32.03-55.6-39.1-78.8-8.1-26.56-17.39-46.57-31.66-68.03-11.25-16.92-22.82-27.98-22.82-27.98,0,0,27.47-9.18,55.99-10.68,5.52-.29,11.45-.57,17.85-.57,13.54,0,29.21,1.27,47.65,6.47,24.2,6.82,45.33,22.24,45.33,22.24,0,0,1.51-5.19,4.24-13.15,1.62-4.72,6.08-16.9,8.47-23.13,4.28-11.16,9.43-24.59,12.11-34.36,3.79-13.8,5.25-26.33,6.48-38.82,1.85-18.73,1.5-36.16,1.5-36.16M205.63,0l.23,11.09c0,.17.33,17.26-1.46,35.32-1.2,12.21-2.58,24.27-6.27,37.66-2.55,9.32-7.64,22.6-11.73,33.27l-.17.44c-2.47,6.46-6.95,18.69-8.55,23.36-.55,1.61-1.05,3.1-1.5,4.46-8.65-5.36-23.36-13.46-39.55-18.02-16.29-4.59-32.03-6.73-49.55-6.73-6.48,0-12.55.29-18.22.58-29.14,1.54-56.69,10.65-57.85,11.03l-11.01,3.68,8.39,8.02c.11.1,11.19,10.79,21.83,26.8,13.92,20.93,22.84,40.11,30.79,66.2,10.75,35.28,24.38,62.65,40.49,81.33,13.51,15.65,30.61,27.02,52.29,34.75,6.02,2.15,12.14,3.7,17.55,4.82-2.43,1.59-5.08,3.23-7.84,4.78-12.69,7.16-23.27,11.49-32.8,15.11-13.15,4.99-29.42,9.13-29.58,9.17l-6.93,1.76,1.9,6.89,4.03,14.6,1.82,6.6,6.64-1.67c1.11-.28,27.46-6.98,49.77-17.18,18.26-8.35,31.47-16.33,44.17-26.69,5.31-4.33,9.41-8.23,11.69-10.5,4.47-.31,13.68-1.19,24.53-3.62,9.85-2.19,18.51-5.22,22.67-6.77,3.65,1.34,10.64,3.72,18.14,5.36,8.32,1.81,15.59,2.56,19.8,2.87,2.15,3.31,5.81,8.73,9.83,13.75,10.64,13.29,21.53,22.16,28.79,27.27,4.59,3.23,18.55,13.04,38.61,16.75,5.18.96,10.31,1.44,15.24,1.44,6.6,0,11.84-.84,15.69-1.59,3.71-.62,12.72-3.44,14.51-4.01l6.59-2.08-1.99-6.61-4.36-14.48-2.11-7-6.9,2.41c-2.15.75-8.62,2.83-12.67,3.43-2.37.35-5.97.82-9.96.82-4.32,0-8.29-.55-11.77-1.62-8.89-2.74-23.73-10.03-29.54-15.33-6.93-6.32-11.29-10.44-14.47-14.11-.27-.31-.55-.64-.83-.98,7.15-1.3,16.72-3.59,27.04-7.56,21.83-8.41,38.43-19.03,53.83-34.41,17.42-17.4,27.19-38.68,30.4-45.68,5.1-11.11,9.37-26.49,13.22-41.46,3.69-14.39,8.55-28.25,16.76-47.83,9.11-21.73,14.22-29.1,20.68-38.43l1.13-1.63c1.85-2.68,3.8-5.41,3.82-5.44l6.37-8.92-10.77-2.03c-.96-.18-23.85-4.44-46.36-4.59-1.06,0-2.11-.01-3.15-.01-32.71,0-57.47,3.64-80.31,11.81-8.78,3.14-16.96,7-24.41,11.52-3.51-10.01-10.48-27.07-23.64-46.66-19.05-28.37-32.45-40.26-47.97-54.02-.94-.83-1.88-1.67-2.83-2.52-9.87-8.78-29.37-22.32-38.42-27.24-10.41-5.66-13.33-7.01-13.63-7.14l-10.11-4.57h0Z"/>
  </g>
  <path class="cls-1" d="M40.67,147.58s12.24,15.86,20.59,31.9c12.37,23.76,15.32,33.96,23.38,58.63,10.32,31.58,20.8,54.35,41.9,74.43,17.42,16.58,45.15,24.03,60.53,25.68,7.91.85,17.16.95,17.16.95,0,0,4.27-4.82,8.08-10.64,5.05-7.73,6.71-11.89,6.71-11.89,0,0-8.91-8.16-15.73-16.54-12.77-15.72-20.71-31.55-26.22-50.15-5.26-17.74-6.37-39.99-4.62-56.87,1.15-11.11,3.53-20.76,3.53-20.76,0,0-6.32-4.52-7.16-5.13-5.97-4.36-21.51-12.96-34.3-17.1-11.34-3.67-25.22-6.79-43.09-7.04-12.03-.17-16.54,0-31.96,1.52-7.37.73-18.79,3.01-18.79,3.01h0Z"/>
  <path class="cls-1" d="M189.14,183.81s-3.23,15.81-2.12,33.52c1.31,20.89,6.09,37.2,15.36,54.27,9.3,17.15,22.3,29.55,22.3,29.55,0,0,4.15-14.56,3.04-31.28-1.61-23.94-7.17-40-17.16-58.21-8.16-14.88-21.42-27.85-21.42-27.85Z"/>
  <path class="cls-1" d="M231.09,326.41s3.65,2.6,5.21,3.61,5.83,3.6,5.83,3.6c-1.69.49-1.3.61-8.91,2.26-4.42.95-8.66,1.61-8.66,1.61,0,0,2.45-3.76,3.49-5.54s3.04-5.54,3.04-5.54h0Z"/>
  <path class="cls-1" d="M291.07,327.29s.72,1.78,1.72,4.2c.93,2.24,2.05,4.61,2.05,4.61,0,0-1.93-.15-6.18-.95-3.43-.64-7.53-1.63-7.53-1.63,0,0,4.46-2.66,5.9-3.56s4.02-2.68,4.02-2.68h0Z"/>
  <path class="cls-1" d="M237.17,312.08s2.19,1.71,5.14,3.74c2.96,2.03,8.72,5.58,11.91,7.25,4.08,2.15,7.17,3.54,7.17,3.54,0,0,4.91-2.23,8.5-4.17,3.59-1.94,6.95-3.97,9.52-5.59,2.56-1.62,6.62-4.55,6.62-4.55,0,0-1.95-6.52-3.77-17.6-2.17-13.2-2.33-32.54,1.62-53.95,3.93-21.31,10.91-38.5,22.79-55.75,9.59-13.91,18.99-21.64,18.99-21.64,0,0-3.56-13.9-9.72-27.11-6.81-14.62-11.23-23.52-26.53-43.34-12-15.54-23.25-26.63-36.78-37.82-13.53-11.19-25.23-18.67-25.23-18.67,0,0-.45,9.11-1.67,18.95-1.12,9.04-2.19,21.08-7.17,38.27-2.87,9.9-9.06,25.36-14.92,40.84-4.57,12.05-10.67,32.23-10.67,32.23.12.15,5.02,4.79,8.2,7.76,3.27,3.03,6.66,7.05,9.59,10.79,6.99,8.9,12.31,16.89,17.96,28.62,5.65,11.73,9.32,24.51,11.32,34.03,2.26,10.74,3.21,22.09,2.84,32.79-.3,8.85-1.49,15.05-2.64,20.46-1.24,5.78-3.09,10.92-3.09,10.92h0Z"/>
  <path class="cls-1" d="M329.46,180.86s3.13,18.04,2.38,36.75c-.7,17.6-2.38,34.62-10.69,52.91-8.32,18.29-22.24,30.88-22.24,30.88,0,0-4.27-17.02-2.61-37.08,1.6-19.41,4.13-33.97,12.28-52.21,7.92-17.71,20.88-31.25,20.88-31.25h0Z"/>
  <path class="cls-1" d="M303.62,317.63s1.7,5.07,3.83,9.65c2.13,4.58,4.72,9.59,4.72,9.59,0,0,7.53-.12,17.24-1.82,9.71-1.7,23.43-5.12,39.72-13.56,22.99-11.91,39.56-29.11,50.33-50.02,16.77-32.55,12.01-37.88,26.63-77.96,6.28-17.22,12.73-31.21,16.13-38.15s7.08-13.3,7.08-13.3c0,0-15.33-1.44-30.21-1.12-14.88.32-24.87.78-39.53,3.76-14.67,2.98-23.4,5.33-34.93,10.58-13.01,5.92-22.04,13.65-22.04,13.65,2.44,11.68,2.19,10.39,3.27,20.55,1.88,17.69,1.47,34.36-.94,52.44-3.09,23.2-10.27,37.61-18.96,50.69-9.42,14.15-22.36,25.02-22.36,25.02h0Z"/>
</svg>