<?xml version="1.0" encoding="UTF-8"?>
<svg id="home" xmlns="http://www.w3.org/2000/svg" viewBox="0 0 510 502">
  <defs>
    <style>
      .cls-1, .cls-2, .cls-3, .cls-4 {
        stroke-width: 0px;
      }

      .cls-1, .cls-5 {
        fill: #115440;
      }

      .cls-2 {
        fill: #b2cbaa;
      }

      .cls-3 {
        fill: #fff;
      }

      .cls-4 {
        fill: #6a8461;
      }

      .cls-5 {
        stroke: #115440;
        stroke-miterlimit: 10;
        stroke-width: 16.72px;
      }
    </style>
  </defs>
  <path class="cls-5" d="M495.05,224L273.7,31.51c-10.72-9.32-26.67-9.32-37.39,0L14.95,224c-5.71,4.97-6.32,13.63-1.35,19.34l7.6,8.74c4.97,5.71,13.63,6.32,19.34,1.35l34.49-29.99,19.56,232.61c1.11,13.24,12.19,23.43,25.48,23.43h269.84c13.29,0,24.37-10.18,25.48-23.43l19.56-232.61,34.49,29.99c5.71,4.97,14.38,4.37,19.34-1.35l7.6-8.74c4.97-5.71,4.37-14.38-1.35-19.34ZM76.04,222.58h0s156.91,0,156.91,0h201.02s-357.93,0-357.93,0Z"/>
  <path class="cls-3" d="M435.04,222.42H74.96l19.63,233.48c1.11,13.24,12.19,23.43,25.48,23.43h269.84c13.29,0,24.37-10.18,25.48-23.43l19.63-233.48Z"/>
  <path class="cls-4" d="M255,244.39c-49.85,0-90.27,40.41-90.27,90.27v144.67h180.53v-144.67c0-49.85-40.41-90.27-90.27-90.27Z"/>
  <g>
    <path class="cls-2" d="M164.73,334.66v144.67h47.28v-224.06c-28.16,15.28-47.28,45.1-47.28,79.39Z"/>
    <path class="cls-2" d="M297.99,255.27v224.06h47.28v-144.67c0-34.29-19.12-64.11-47.28-79.39Z"/>
    <path class="cls-2" d="M255,244.39c-10.6,0-20.76,1.83-30.21,5.19v229.75h60.42v-229.75c-9.45-3.35-19.61-5.19-30.21-5.19Z"/>
  </g>
  <path class="cls-1" d="M302.31,334.19v-3.48c0-26.01-21.09-47.1-47.1-47.1s-47.1,21.09-47.1,47.1v3.48h94.19Z"/>
  <g>
    <polygon class="cls-3" points="240.75 78.23 107.73 193.92 240.75 193.92 240.75 78.23"/>
    <polygon class="cls-3" points="402.27 193.92 269.25 78.23 269.25 193.92 402.27 193.92"/>
    <polygon class="cls-2" points="278.54 78.23 255.74 65.84 232.95 78.23 232.95 193.92 232.95 222.42 278.54 222.42 278.54 193.92 278.54 78.23"/>
    <polygon class="cls-2" points="108.47 177.49 75.71 222.42 241.49 222.42 241.49 177.49 108.47 177.49"/>
    <polygon class="cls-2" points="269.25 177.49 269.25 222.42 435.04 222.42 402.27 177.49 269.25 177.49"/>
  </g>
  <circle class="cls-1" cx="186.55" cy="378.63" r="16.77"/>
  <path class="cls-4" d="M496.4,243.19c4.97-5.71,4.37-14.38-1.35-19.34L273.7,31.35c-10.72-9.32-26.67-9.32-37.39,0L14.95,223.85c-5.71,4.97-6.32,13.63-1.35,19.34l7.6,8.74c4.97,5.71,13.63,6.32,19.34,1.35L255,66.79l214.45,186.49c5.71,4.97,14.37,4.37,19.34-1.35l7.6-8.74Z"/>
</svg>