<?xml version="1.0" encoding="UTF-8"?>
<svg id="contact_2" data-name="contact 2" xmlns="http://www.w3.org/2000/svg" viewBox="0 0 510 502">
  <defs>
    <style>
      .cls-1, .cls-2, .cls-3, .cls-4 {
        stroke-width: 0px;
      }

      .cls-1, .cls-5 {
        fill: #115440;
      }

      .cls-2 {
        fill: #b2cbaa;
      }

      .cls-3 {
        fill: #fff;
      }

      .cls-5 {
        stroke: #115440;
        stroke-miterlimit: 10;
        stroke-width: 17px;
      }

      .cls-4 {
        fill: #6a8461;
      }
    </style>
  </defs>
  <path class="cls-5" d="M434.57,264.81l-85.56-73.84c.82-.77,1.63-1.57,2.43-2.39,5.82-6.03,10.76-13.15,14.81-21.36,4.05-8.21,7.17-17.28,9.35-27.2,2.18-9.92,3.27-20.4,3.27-31.41,0-17.98-3.61-34.17-10.83-48.56-7.23-14.39-18.11-25.77-32.66-34.14-14.55-8.36-32.84-12.55-54.88-12.55-17.88,0-34.48,2.52-49.81,7.56-15.33,5.04-29.1,12.14-41.31,21.28-12.21,9.15-22.66,19.93-31.33,32.35-8.68,12.42-15.3,26.09-19.88,41-4.58,14.91-6.86,30.58-6.86,47s2.47,31.39,7.41,44.59c.29.79.62,1.55.93,2.32l-64.22,55.36v196.31c0,5.96,1.9,11.47,5.12,15.98,0,0,.33.59,1.58,2.04,1.04,1.22,1.91,1.96,1.91,1.96.03.03.05.05.08.08,4.93,4.63,11.55,7.48,18.85,7.48h304.07c7.33,0,13.99-2.87,18.93-7.55,0,0,.86-.73,1.91-1.95,1.25-1.46,1.57-2.05,1.57-2.05,3.22-4.51,5.12-10.02,5.12-15.98v-196.31ZM279.25,130.76l-3.87-3.34c-11.63-10.13-28.95-10.13-40.58,0l-15.26,13.15c.4-1.53.83-3.04,1.33-4.54,2.55-7.69,6.16-14.52,10.83-20.5,4.68-5.97,10.18-10.68,16.52-14.11,6.34-3.43,13.3-5.14,20.89-5.14,3.84,0,7.33.34,10.45,1.01,3.12.68,5.77,1.43,7.95,2.26l-8.27,31.2ZM156.73,160.82c0-14.24,1.84-27.7,5.53-40.38,3.69-12.68,9.01-24.21,15.98-34.61,6.96-10.39,15.36-19.36,25.18-26.89,9.82-7.53,20.89-13.35,33.21-17.46,12.32-4.1,25.64-6.16,39.99-6.16,18.5,0,33.41,3.27,44.74,9.82,11.33,6.55,19.62,15.49,24.87,26.81,5.25,11.33,7.87,24.11,7.87,38.35,0,7.38-.68,14.71-2.03,21.98-1.35,7.28-3.3,14.16-5.85,20.66-2.55,6.5-5.59,12.24-9.12,17.23-1.6,2.26-3.3,4.29-5.09,6.12l-31.69-27.35c.52-2.03,1.08-4.2,1.7-6.52l15.12-58.15c-5.61-2.28-12-4.34-19.18-6.16-7.17-1.82-15.85-2.73-26.03-2.73-9.04,0-17.62,1.4-25.72,4.21-8.11,2.81-15.51,6.81-22.22,12-6.7,5.2-12.53,11.41-17.46,18.63-4.94,7.22-8.73,15.23-11.38,24.01-2.65,8.78-3.98,18.11-3.98,27.98,0,.94.01,1.86.04,2.77l-30.65,26.42c-2.56-9.29-3.85-19.49-3.85-30.59Z"/>
  <path id="topflap" class="cls-2" d="M234.81,127.42l-159.38,137.38h359.14l-159.18-137.38c-11.63-10.13-28.95-10.13-40.58,0Z"/>
  <path class="cls-4" d="M418.39,264.81s-15.27.16-36.48-18.31c-21.21-18.47-115.67-100.72-115.67-100.72-6.45-5.61-16.05-5.61-22.49,0,0,0-95.52,83.3-116.19,101.16-20.66,17.86-35.95,17.86-35.95,17.86h-16.1l179.53,108.67,179.53-108.67h-16.17Z"/>
  <g>
    <path class="cls-2" d="M434.57,461.12v-196.31c-13,0-25.7,3.91-36.44,11.23l-116.53,79.34,144.39,125.72c5.29-5.02,8.59-12.11,8.59-19.97Z"/>
    <path class="cls-2" d="M111.88,276.04c-10.75-7.32-23.44-11.23-36.44-11.23v196.31c0,7.91,3.34,15.04,8.68,20.06l144.4-125.73-116.64-79.41Z"/>
    <path class="cls-2" d="M281.59,355.37l-6.21-5.4c-11.63-10.13-28.95-10.13-40.58,0l-6.29,5.48,26.48,18.03,26.59-18.1Z"/>
    <path class="cls-2" d="M281.59,355.37l-10.73-9.4c-9.06-7.93-22.59-7.92-31.63.04l-10.72,9.44-144.4,125.73c4.93,4.63,11.55,7.48,18.85,7.48h304.07c7.34,0,14.01-2.88,18.94-7.56l-144.39-125.72Z"/>
  </g>
  <path id="_" data-name="@" class="cls-3" d="M238.1,269.8c-16.42,0-31.21-2.47-44.35-7.41-13.15-4.94-24.37-12.08-33.67-21.44-9.3-9.35-16.42-20.63-21.36-33.83-4.94-13.2-7.41-28.06-7.41-44.59,0-16.42,2.28-32.09,6.86-47,4.57-14.91,11.2-28.58,19.88-41,8.68-12.42,19.12-23.2,31.33-32.35,12.21-9.14,25.98-16.24,41.31-21.28,15.33-5.04,31.93-7.56,49.81-7.56,22.03,0,40.32,4.18,54.88,12.55,14.55,8.37,25.43,19.75,32.66,34.14,7.22,14.4,10.83,30.58,10.83,48.56,0,11.02-1.09,21.49-3.27,31.41-2.18,9.93-5.3,18.99-9.35,27.2-4.05,8.21-8.99,15.33-14.81,21.36-5.82,6.03-12.29,10.68-19.41,13.95-7.12,3.27-14.84,4.91-23.15,4.91-10.81,0-18.76-2.6-23.85-7.79-5.09-5.2-8.16-11.74-9.2-19.64h-1.25c-4.68,7.9-10.58,14.45-17.69,19.64-7.12,5.2-15.93,7.79-26.42,7.79-11.64,0-21.1-3.82-28.37-11.46-7.28-7.64-10.91-18.89-10.91-33.75,0-9.87,1.33-19.2,3.98-27.98,2.65-8.78,6.44-16.78,11.38-24.01,4.93-7.22,10.76-13.43,17.46-18.63,6.7-5.2,14.11-9.2,22.22-12,8.11-2.81,16.68-4.21,25.72-4.21,10.18,0,18.86.91,26.03,2.73,7.17,1.82,13.56,3.87,19.18,6.16l-15.12,58.15c-1.66,6.24-2.96,11.43-3.9,15.59-.94,4.16-1.4,8.06-1.4,11.69,0,5.92,1.33,10.16,3.98,12.71,2.65,2.55,6,3.82,10.06,3.82,5.2,0,10-1.43,14.42-4.29,4.42-2.86,8.39-6.78,11.93-11.77,3.53-4.99,6.57-10.73,9.12-17.23,2.55-6.49,4.49-13.38,5.85-20.66,1.35-7.27,2.03-14.6,2.03-21.98,0-14.24-2.63-27.02-7.87-38.35-5.25-11.33-13.54-20.27-24.87-26.81-11.33-6.55-26.24-9.82-44.74-9.82-14.34,0-27.67,2.05-39.99,6.16-12.32,4.11-23.38,9.93-33.21,17.46-9.82,7.54-18.22,16.5-25.18,26.89-6.96,10.39-12.29,21.93-15.98,34.61-3.69,12.68-5.53,26.14-5.53,40.38,0,17.46,3.17,32.69,9.51,45.68,6.34,12.99,15.82,23.05,28.45,30.17,12.63,7.12,28.19,10.68,46.69,10.68,11.85,0,23.38-1.25,34.61-3.74,11.22-2.49,21.77-5.61,31.65-9.35v21.67c-10.6,4.37-21.8,7.77-33.6,10.21-11.8,2.44-23.77,3.66-35.93,3.66ZM236.39,186.24c10.08,0,18.42-4.42,25.02-13.25,6.6-8.83,11.87-20.37,15.82-34.61l10.29-38.82c-2.18-.83-4.83-1.58-7.95-2.26-3.12-.67-6.6-1.01-10.44-1.01-7.59,0-14.55,1.71-20.89,5.14-6.34,3.43-11.85,8.13-16.52,14.11-4.68,5.98-8.29,12.81-10.83,20.5-2.55,7.69-3.82,15.8-3.82,24.32,0,9.04,1.74,15.62,5.22,19.72,3.48,4.11,8.18,6.16,14.11,6.16Z"/>
  <path class="cls-1" d="M429.47,477.12s-.35.57-1.6,2.03c-1.04,1.22-1.89,1.98-1.89,1.98l-144.4-125.72,4.43-3.03,143.45,124.74Z"/>
  <path class="cls-1" d="M80.54,477.11s.35.57,1.6,2.03c1.04,1.22,1.89,1.98,1.89,1.98l144.5-125.67-4.43-3.03-143.55,124.69Z"/>
</svg>