<?xml version="1.0" encoding="UTF-8"?>
<svg id="projects_2" data-name="projects 2" xmlns="http://www.w3.org/2000/svg" viewBox="0 0 510 502">
  <defs>
    <style>
      .cls-1, .cls-2, .cls-3, .cls-4 {
        stroke-width: 0px;
      }

      .cls-1, .cls-5 {
        fill: #115440;
      }

      .cls-2 {
        fill: #b2cbaa;
      }

      .cls-3 {
        fill: #fff;
      }

      .cls-5 {
        stroke: #115440;
        stroke-miterlimit: 10;
        stroke-width: 17px;
      }

      .cls-4 {
        fill: #6a8461;
      }
    </style>
  </defs>
  <path class="cls-5" d="M490.78,311.1h-79.96l15.45-26.63c2.9-4.99-.7-11.24-6.47-11.24h-3.61l18.19-55.98c2.97-9.14.86-18.7-4.77-25.65-3.21-3.97-7.56-7.08-12.77-8.78l-46.24-15.02-.21-.07v-74.68c0-10.79-6.24-20.11-15.32-24.55-3.62-1.77-7.69-2.77-11.99-2.77h-73.67l-2.84-8.73-3.82-11.79c-4.66-14.35-20.08-22.2-34.43-17.54l-137.49,44.67,1.66,5.11,49.36,151.93h-8.9,0s0,0,0,0h-34.06c-6.43,0-10.91,6.39-8.72,12.43l12.19,33.64H18.37c-6.05,0-10.26,6-8.2,11.69l64.69,178.45c2.16,5.96,8.32,10.02,15.3,10.1,0,0,308.29,0,308.29,0,8.29,0,15.95-4.4,20.12-11.57.68-1.17,1.43-2.46,2.25-3.87,3.85-6.62,57.29-98.7,78.24-134.79,3.7-6.37-.9-14.36-8.27-14.36ZM127.16,275.44l-10.42-28.74h82.33l10.42,28.74h-82.33Z"/>
  <path class="cls-4" d="M392.85,456.54l-63.57-175.35c-1.25-3.45-4.53-5.75-8.2-5.75h-90.32l-13.02-35.91c-2.21-6.1-8.01-10.16-14.5-10.16h-104.37c-6.43,0-10.91,6.39-8.72,12.43l12.19,33.64H18.37c-6.05,0-10.26,6-8.2,11.69l64.69,178.45c2.18,6.03,8.45,10.11,15.52,10.11h286.95c11.09,0,18.95-9.7,15.52-19.15ZM127.16,275.44l-10.42-28.74h82.33l10.42,28.74h-82.33Z"/>
  <path class="cls-1" d="M360.6,154.9l-69.57-22.61-17.39-5.65-45.35,139.56-8.36,25.74c-8.95-1.97-16.24-8.31-19.54-16.68-1.22-3.1-1.9-6.47-1.9-10V65.73h70.9l-2.84-8.74h-76.65v211.39c0,3.32.71,6.71,1.97,9.99l-3.78,1.29c-8.82,2.87-18.49.99-25.72-4.21-4.53-3.26-8.1-7.81-9.89-13.34l-5-15.4-5.63-17.34h-8.9l5.63,17.34,7.37,22.7c.68,2.1,1.74,4.13,3.1,6.04,7.95,11.17,26.46,18.37,44.14,12.1l2.93-.95c5.02,7.51,12.44,13.32,20.83,14.49l-4.98,15.33c-2.97,9.14-.86,18.7,4.77,25.65-.98-4.56,143.85-177.47,143.85-177.47l9.78,3.18v-9.69l-9.78-3.18Z"/>
  <path class="cls-3" d="M189.92,64.7v-7.72h76.65l-3.83-11.78c-4.66-14.35-20.08-22.2-34.43-17.54l-137.49,44.67,1.66,5.11,60,184.67c4.66,14.35,21.27,22.2,35.62,17.54l3.8-1.23c-1.27-3.3-1.98-6.71-1.98-10.04V64.7Z"/>
  <path class="cls-3" d="M355.06,68.5c-3.62-1.77-7.69-2.77-11.99-2.77h-144.56v199.54c0,3.53.68,6.9,1.9,10,3.29,8.37,10.59,14.71,19.54,16.68l8.36-25.74,45.35-139.56,17.39,5.65,69.57,22.61,9.78,3.18v-65.03c0-10.79-6.25-20.11-15.33-24.55Z"/>
  <path class="cls-3" d="M429.62,191.6c-3.21-3.97-7.56-7.08-12.77-8.78l-46.24-15.02-9.78-3.18-66.05-21.46-15.41-5.01-40.53,124.73-9.66,29.74-2.83,8.71-8.64,26.59c-1.54,4.75-1.71,9.62-.73,14.17,1.98,9.2,8.67,17.14,18.27,20.26l137.49,44.67,61.66-189.77c2.97-9.14.86-18.7-4.77-25.65Z"/>
  <path class="cls-2" d="M195.69,311.1c-6.19,0-11.91,3.29-15.02,8.65l-80.15,138.09c-9.02,15.55-10.35,17.85-10.35,17.85h308.28c8.29,0,15.95-4.4,20.12-11.57.68-1.17,1.43-2.46,2.25-3.87,3.85-6.62,57.29-98.7,78.24-134.79,3.7-6.37-.9-14.36-8.27-14.36h-79.96s15.45-26.63,15.45-26.63c2.9-4.99-.7-11.24-6.47-11.24h-106.28c-5.75,0-11.07,3.06-13.96,8.04l-17.32,29.83h-86.56ZM311.19,311.1l12.96-22.33h69.47s-12.96,22.33-12.96,22.33h-69.47Z"/>
</svg>