<?xml version="1.0" encoding="UTF-8"?>
<svg id="about" xmlns="http://www.w3.org/2000/svg" viewBox="0 0 510 502">
  <defs>
    <style>
      .cls-1 {
        fill: #b2cbaa;
      }

      .cls-1, .cls-2, .cls-3 {
        stroke-width: 0px;
      }

      .cls-2 {
        fill: #fff;
      }

      .cls-4 {
        fill: #115440;
        stroke: #115440;
        stroke-miterlimit: 10;
        stroke-width: 17px;
      }

      .cls-3 {
        fill: #6a8461;
      }
    </style>
  </defs>
  <g id="Layer_13" data-name="Layer 13">
    <path class="cls-4" d="M456.76,232.76c-19.35-7.72-33.97,2.6-45.09,23.67-3.16,5.99-11.62,24.09-14.47,29.5-11.89-14.98-9.67-33.73-23.03-29.85-7.03,2.04-5.2,22.98-.65,48.12,2.54,14.01,10.05,22.52,14.01,27.63.92,1.18,2.23,2.45,3.82,3.74-7.06,15-10.54,37.15-31.14,53.3-10.94-17.94-23.65-34.01-38.07-47.49,10.73-7.91,20.78-19.79,28.77-36.73,11.9-25.22,15.87-96.58,8.13-147.56-10.25-67.49-43.76-117.02-122.28-132.83-18.11-3.65-31.51-2.12-47.17.85-7.36,1.39-18.47,10.91-18.47,10.91,0,0-14.41-5.1-27,5.44-32.8,27.47-62.47,64.35-67.13,124.67-3.46,44.83-4.18,113.59,7.42,140.88,5.91,13.9,14.64,26.23,26.89,35.07-43.1,38.3-72.74,94.25-77.99,137.8h396.97c3.03-15.79,8.19-59.89,9.41-81.34,1.33-23.46.08-41.66-3.17-54.7,3.58-1.98,7.36-4.82,11.33-8.8,9.8-9.8,17.52-28.9,22.54-41.47,12.42-31.12,5.71-53.08-13.63-60.8ZM304.67,289.36c-3.77,10.95-7.85,21.06-11.73,29.89-5.19-3.1-10.55-5.91-16.07-8.38,9.85-5.82,18.97-13.17,27.8-21.5ZM137.92,282.63c8.97,9.28,18.76,17.64,29.43,24.42-7.23,2.77-14.27,6.11-21.11,9.94-2.91-9.53-5.82-20.96-8.31-34.36Z"/>
  </g>
  <path id="shirt" class="cls-1" d="M430.29,479.87c3.03-15.79,8.19-59.89,9.41-81.34,3.02-53.36-7.3-79.54-24.08-79.54-34.11,0-21.32,43.15-55.4,69.87-32.83-53.83-81.55-91-144.85-91-95.08,0-173.21,108.61-182.05,182.01h396.97Z"/>
  <path id="head" class="cls-2" d="M359.35,186.48c0,38.94-23.07,71.22-48,96.36s-49.16,42.01-85.25,42.01c-38.54,0-69.32-20.93-93.65-48.09-22.13-24.7-39.6-53.88-39.6-90.28,0-76.42,59.66-138.38,133.25-138.38s133.25,61.95,133.25,138.38Z"/>
  <path id="hair" class="cls-3" d="M359.05,157.1c7.74,50.97,3.77,122.34-8.13,147.56-12.18,25.82-29.13,39.87-46.02,46.07-10.26,3.77-29.46,3.49-29.46,3.49,0,0,29.31-49.3,40.21-105,4.18-21.37,2.3-40.2-1.31-56.31-6.39-28.54-23.65-46.37-46.45-60.21-26.44-16.05-43.05-18.73-60.36-27.87-8.59-4.54-22.79-14.35-22.79-14.35,0,0-9.77,16.31-13.38,20.96-5.38,6.93-28.65,41.63-33.92,66.87-7.3,34.99-5.85,65.56-1.11,95.12,8.98,55.92,25.64,81.2,25.64,81.2,0,0-18.31,1.32-30.11-2.35-23.62-7.35-38.65-24.59-47.44-45.27-11.6-27.3-10.88-96.06-7.42-140.88,4.66-60.31,34.33-97.2,67.13-124.67,12.59-10.54,27-5.44,27-5.44,0,0,11.12-9.52,18.47-10.91,15.67-2.96,29.06-4.49,47.17-.85,78.52,15.81,112.03,65.34,122.28,132.83Z"/>
  <path id="hand" class="cls-2" d="M470.39,293.56c12.42-31.12,5.71-53.08-13.63-60.8-19.35-7.72-33.97,2.6-45.09,23.67-3.16,5.99-11.62,24.09-14.47,29.5-11.89-14.98-9.67-33.73-23.03-29.85-7.03,2.04-5.2,22.98-.65,48.12,2.54,14.01,10.05,22.52,14.01,27.63,4.48,5.79,18.17,13.63,30.24,15.53,8.42,1.32,18.39-.63,30.09-12.33,9.8-9.8,17.52-28.9,22.54-41.47Z"/>
</svg>