<?xml version="1.0" encoding="UTF-8"?>
<svg id="fill-best" xmlns="http://www.w3.org/2000/svg" viewBox="0 0 509.55 501.84">
  <defs>
    <style>
      .cls-1 {
        fill: #115440;
      }

      .cls-1, .cls-2 {
        stroke-width: 0px;
      }

      .cls-2 {
        fill: #b2cbaa;
      }
    </style>
  </defs>
  <path class="cls-2" d="M94.9,464.17l4.26,15.43s28.09-7.09,51.33-17.73c17.66-8.08,31.49-16.14,45.08-27.24,8.37-6.83,13.75-12.6,13.75-12.6,0,0,12.2-.38,27.59-3.82,13.87-3.09,25.55-7.87,25.55-7.87,0,0,9.94,4,20.77,6.36,13.02,2.84,23.56,3.09,23.56,3.09,0,0,5.59,9.14,11.96,17.1,10.72,13.4,21.65,22.31,28.91,27.42s20.15,13.21,37.89,16.49c13.29,2.46,22.94,1.22,30.03-.16,3.47-.55,14.41-4.01,14.41-4.01l-4.61-15.32s-8.81,3.08-14.75,3.96-16.18,2-26.23-1.1-26.82-11.25-34.02-17.82-12.18-11.25-15.9-15.54-8.94-11.53-8.94-11.53c0,0,18.28-1.06,39.56-9.27s38.15-18.56,54.32-34.73,25.76-35.55,30.63-46.17c5.39-11.74,9.92-28.56,13.53-42.61,3.75-14.63,8.67-29.22,18.05-51.62,10.5-25.06,16.41-33.04,23.78-43.73,2.01-2.92,4.1-5.85,4.1-5.85,0,0-24.28-4.57-47.68-4.73-34.25-.23-60.61,3.08-85.66,12.05-19.61,7.02-30.69,15.68-32.29,16.73-1.02-2.6-7.2-27.06-27.12-56.75-20.83-31.05-35.26-43.08-52.47-58.41-9.88-8.8-30.12-22.89-39.22-27.85-11.08-6.03-13.91-7.31-13.91-7.31,0,0,.38,18.44-1.58,38.25-1.3,13.22-2.84,26.47-6.85,41.07-2.83,10.34-8.28,24.54-12.8,36.35-2.52,6.59-7.24,19.48-8.95,24.47-2.88,8.42-4.48,13.91-4.48,13.91,0,0-22.34-16.32-47.91-23.53-28.71-8.1-51.04-7.18-69.23-6.24C29.22,184.9.19,194.61.19,194.61c0,0,12.23,11.7,24.12,29.6,15.08,22.7,24.9,43.87,33.46,71.97,7.47,24.54,20.22,58.88,41.32,83.36,16.23,18.83,35.27,28.6,52.14,34.62s34.98,7.44,34.98,7.44c0,0-10.6,8.82-23.57,16.14s-23.83,11.96-35.67,16.46c-14.45,5.49-32.07,9.96-32.07,9.96Z"/>
  <path class="cls-1" d="M29.19,203.57s12.94,16.78,21.76,33.75c13.07,25.14,16.19,35.93,24.71,62.02,10.91,33.41,21.98,57.5,44.28,78.74,18.41,17.54,47.72,25.42,63.97,27.17,8.36.9,18.13,1,18.13,1,0,0,4.51-5.1,8.54-11.26,5.34-8.18,7.09-12.58,7.09-12.58,0,0-9.42-8.63-16.62-17.5-13.5-16.63-21.89-33.38-27.71-53.05s-6.73-42.3-4.88-60.16c1.22-11.75,3.73-21.96,3.73-21.96,0,0-6.68-4.78-7.57-5.43-6.31-4.61-22.73-13.71-36.25-18.09-11.98-3.88-26.65-7.18-45.54-7.45-12.71-.18-17.48,0-33.78,1.61-7.79.77-19.86,3.18-19.86,3.18Z"/>
  <path class="cls-1" d="M186.09,241.9s-3.41,16.72-2.24,35.46c1.38,22.1,6.44,39.35,16.23,57.41s23.57,31.26,23.57,31.26c0,0,4.39-15.4,3.21-33.09-1.7-25.33-7.58-42.32-18.13-61.58-8.62-15.74-22.64-29.46-22.64-29.46Z"/>
  <path class="cls-1" d="M230.43,392.75s3.86,2.75,5.51,3.82,6.16,3.81,6.16,3.81c-1.79.52-1.37.65-9.42,2.39-4.67,1.01-9.15,1.7-9.15,1.7,0,0,2.59-3.98,3.69-5.86s3.21-5.86,3.21-5.86Z"/>
  <path class="cls-1" d="M293.82,393.68s.76,1.88,1.82,4.44c.98,2.37,2.17,4.88,2.17,4.88,0,0-2.04-.16-6.53-1.01-3.62-.68-7.96-1.72-7.96-1.72,0,0,4.71-2.81,6.24-3.77s4.25-2.83,4.25-2.83Z"/>
  <path class="cls-1" d="M236.85,377.59s2.31,1.81,5.43,3.96,9.22,5.9,12.59,7.67c4.31,2.27,7.58,3.75,7.58,3.75,0,0,5.19-2.36,8.98-4.41s7.35-4.2,10.06-5.91,7-4.81,7-4.81c0,0-2.06-6.9-3.98-18.62-2.29-13.96-2.46-34.42,1.71-57.07,4.15-22.54,11.53-40.73,24.09-58.98,10.13-14.71,20.07-22.89,20.07-22.89,0,0-3.76-14.7-10.27-28.68-7.2-15.47-11.87-24.88-28.04-45.85-12.68-16.44-24.57-28.17-38.87-40.01s-26.66-19.75-26.66-19.75c0,0-.48,9.64-1.76,20.05-1.18,9.56-2.31,22.3-7.58,40.48-3.03,10.47-9.57,26.83-15.77,43.2-4.83,12.75-11.28,34.1-11.28,34.1.13.16,5.3,5.07,8.67,8.21,3.46,3.21,7.04,7.46,10.14,11.41,7.39,9.41,13.01,17.87,18.98,30.28s9.85,25.93,11.96,36c2.39,11.36,3.39,23.37,3,34.69-.32,9.36-1.57,15.92-2.79,21.64-1.31,6.11-3.27,11.55-3.27,11.55Z"/>
  <path class="cls-1" d="M334.39,238.78s3.31,19.08,2.52,38.88c-.74,18.62-2.51,36.62-11.3,55.97-8.45,18.62-23.5,32.67-23.5,32.67,0,0-4.51-18-2.76-39.23,1.69-20.53,4.36-35.94,12.98-55.23,8.37-18.74,22.07-33.06,22.07-33.06Z"/>
  <path class="cls-1" d="M307.08,383.47s1.8,5.36,4.05,10.21,4.99,10.15,4.99,10.15c0,0,7.96-.13,18.22-1.93s24.76-5.42,41.98-14.35c24.3-12.6,41.81-30.79,53.19-52.91,17.72-34.43,12.69-40.07,28.14-82.47,6.64-18.22,13.45-33.02,17.05-40.36s7.48-14.07,7.48-14.07c0,0-16.2-1.52-31.93-1.18s-26.28.83-41.78,3.98-24.73,5.64-36.91,11.19c-13.75,6.26-23.29,14.44-23.29,14.44,2.58,12.36,2.31,10.99,3.46,21.74,1.99,18.71,1.55,36.35-.99,55.47-3.27,24.54-10.85,39.79-20.04,53.62-9.95,14.97-23.63,26.47-23.63,26.47Z"/>
</svg>